<svg width="155" height="32" viewBox="0 0 155 32" fill="none" xmlns="http://www.w3.org/2000/svg">
<path d="M28.9905 28.2017C28.9905 28.2017 28.5755 28.7043 28.0788 29.056C25.3066 31.0187 21.6342 32 17.0616 32C13.6321 32 10.6314 31.3742 8.05926 30.1227C5.48715 28.8711 3.50092 27.0364 2.10055 24.6187C0.700184 22.2009 0 19.328 0 16C0 12.8427 0.671605 10.0693 2.01481 7.68C3.3866 5.26222 5.35855 3.38489 7.93065 2.048C10.5028 0.682667 13.5321 0 17.0187 0C25.5067 0 30.6652 3.48444 32.4942 10.4533H25.4276C24.7131 8.43378 23.9206 7.79378 22.5488 6.912C21.2056 6.03022 19.3622 5.58934 17.0187 5.58934C13.9608 5.58934 11.5459 6.51378 9.77399 8.36267C8.0021 10.2116 7.11615 12.7573 7.11615 16C7.11615 19.2711 8.0021 21.8311 9.77399 23.68C11.5459 25.5004 14.0037 26.4107 17.1474 26.4107C19.6909 26.4107 21.6914 25.9413 23.1489 25.0027C24.6065 24.064 25.5781 22.6276 26.064 20.6933L28.9905 28.2017Z" fill="#1C2024"/>
<path d="M50.1792 31.0794L44.6921 15.9327L39.2049 31.0794H32.8604L26.3971 13.4739H33.0845L36.5471 24.5087L42.0771 8.97804H47.65L53.18 24.5514L58.1099 8.80737H64.4544L56.5238 31.0794H50.1792Z" fill="#1C2024"/>
<path d="M85.6299 31.0803C83.9568 31.0803 82.6006 29.724 82.6006 28.051C81.2859 29.3025 79.8713 30.227 78.3566 30.8243C76.8705 31.3932 75.1558 31.6776 73.2124 31.6776C70.2688 31.6776 68.011 31.0945 66.4392 29.9283C64.8673 28.7336 64.0814 27.0412 64.0814 24.851C64.0814 22.4048 65.1103 20.5843 67.1679 19.3896C69.2256 18.195 72.4693 17.5408 76.8991 17.427L82.3862 17.299V16.4456C82.3862 15.1941 81.929 14.2412 81.0144 13.587C80.0999 12.9043 78.7996 12.563 77.1134 12.563C73.884 12.563 71.0106 13.3226 71.0106 15.682H65.0519C65.0519 13.2846 67.1965 10.8279 69.1399 9.74698C71.1118 8.66609 73.8411 8.12564 77.3277 8.12564C84.7868 8.12564 88.5164 11.0554 88.5164 16.915V23.9976V26.3361C88.5164 26.7047 88.8151 27.0034 89.1837 27.0034H90.8163V31.0803H85.6299ZM82.3862 21.0536L77.0277 21.1816C74.7128 21.2385 73.0123 21.5372 71.9263 22.0776C70.8689 22.5896 70.3402 23.3719 70.3402 24.4243C70.3402 25.3345 70.726 26.0314 71.4977 26.515C72.2979 26.9985 73.441 27.2403 74.9271 27.2403C76.1274 27.2403 77.2277 27.0981 78.228 26.8136C79.2282 26.5008 80.0713 26.0599 80.7572 25.491C81.8432 24.6376 82.3862 23.5568 82.3862 22.2483V21.0536Z" fill="#1C2024"/>
<path d="M93.349 31.1451V0.681061H99.7364V31.1451H93.349Z" fill="#1C2024"/>
<path d="M102.025 31.1451V0.681061H108.412V31.1451H102.025Z" fill="#1C2024"/>
<path d="M116.376 21.5451C116.405 22.6544 116.705 23.6358 117.277 24.4891C117.877 25.3424 118.691 26.0109 119.72 26.4944C120.778 26.978 121.992 27.2198 123.364 27.2198C126.708 27.2198 128.78 26.21 129.58 24.1904H135.539C134.938 26.7789 133.61 28.6989 131.552 29.9504C129.523 31.202 126.722 31.8278 123.15 31.8278C119.091 31.8278 115.933 30.818 113.676 28.7984C111.447 26.7789 110.332 23.9487 110.332 20.3078C110.332 17.9753 110.846 15.8989 111.875 14.0784C112.933 12.2295 114.433 10.7931 116.376 9.7691C118.348 8.71665 120.649 8.19043 123.278 8.19043C127.279 8.19043 130.366 9.20021 132.538 11.2198C134.738 13.2109 135.839 16.0127 135.839 19.6251V21.5451H116.376ZM129.88 17.6624C129.823 16.098 129.208 14.8891 128.037 14.0358C126.865 13.154 125.236 12.7131 123.15 12.7131C121.378 12.7131 119.863 13.1824 118.606 14.1211C117.377 15.0598 116.691 16.2402 116.548 17.6624H129.88Z" fill="#1C2024"/>
<path d="M154.666 30.633C152.666 31.2588 150.565 31.5717 148.365 31.5717C145.535 31.5717 143.478 30.9459 142.192 29.6944C140.906 28.4144 140.263 26.3948 140.263 23.6357V13.609H135.933V8.87305H140.263V2.94238H146.65V8.87305H153.981V13.609H146.65V23.4224C146.65 24.5317 146.922 25.3566 147.465 25.897C148.008 26.409 148.865 26.665 150.037 26.665C151.266 26.665 152.523 26.4659 153.809 26.0677L154.666 30.633Z" fill="#1C2024"/>
</svg>
